<svg width="115" height="39" viewBox="0 0 115 39" fill="none" xmlns="http://www.w3.org/2000/svg">
<path d="M18 10C20.7614 10 23 7.76142 23 5C23 2.23858 20.7614 0 18 0C15.2386 0 13 2.23858 13 5C13 7.76142 15.2386 10 18 10Z" fill="#64A4C4"/>
<path d="M30 17C32.7614 17 35 14.7614 35 12C35 9.23858 32.7614 7 30 7C27.2386 7 25 9.23858 25 12C25 14.7614 27.2386 17 30 17Z" fill="#ACCAED"/>
<path d="M5 32C7.76142 32 10 29.7614 10 27C10 24.2386 7.76142 22 5 22C2.23858 22 0 24.2386 0 27C0 29.7614 2.23858 32 5 32Z" fill="#3C7197"/>
<path d="M9.74469 10.7033C9.55514 9.55843 8.60736 8.41357 7.47003 7.65034C5.00582 6.31467 1.97294 7.07791 0.64606 9.55843C-0.680823 12.039 0.0773959 15.0919 2.54161 16.4276C2.92072 16.8092 3.29983 16.8092 3.86849 17H5.19538C5.57449 17 5.76404 17 6.14315 17L16 14.3287C12.588 15.2827 10.6925 14.3287 9.74469 10.7033Z" fill="#64A4C4"/>
<path d="M6 17.463C9.58279 16.5545 11.5732 17.6447 12.5684 20.9152C12.7675 21.8237 13.3646 22.5505 14.1608 23.0956H13.9618C16.5493 25.4576 16.5493 27.4563 13.9618 30L21.5254 23.0956H21.3264C21.7245 22.7322 22.1226 22.5505 22.3216 22.1871C23.7149 19.825 22.9187 16.9179 20.3312 15.646C19.1369 14.9192 17.5445 14.9192 16.3503 15.1009L6 17.463Z" fill="#3C7197"/>
<path d="M21.5185 30.2381C19.1111 27.7619 19.1111 25.6667 21.5185 23L14.4815 30.2381C13.5556 31.1905 13 32.3333 13 33.8571C13 36.7143 15.2222 39 18 39C20.7778 39 23 36.7143 23 33.8571C22.8148 32.3333 22.2593 31 21.5185 30.2381Z" fill="#123467"/>
<path d="M36.6094 29.9297C36.6094 30.7969 36.3125 31.4648 35.7188 31.9336C35.1289 32.3984 34.2832 32.6309 33.1816 32.6309H32.1738V36H31.1777V27.4336H33.3984C35.5391 27.4336 36.6094 28.2656 36.6094 29.9297ZM32.1738 31.7754H33.0703C33.9531 31.7754 34.5918 31.6328 34.9863 31.3477C35.3809 31.0625 35.5781 30.6055 35.5781 29.9766C35.5781 29.4102 35.3926 28.9883 35.0215 28.7109C34.6504 28.4336 34.0723 28.2949 33.2871 28.2949H32.1738V31.7754ZM43.8047 32.7832C43.8047 33.8301 43.541 34.6484 43.0137 35.2383C42.4863 35.8242 41.7578 36.1172 40.8281 36.1172C40.2539 36.1172 39.7441 35.9824 39.2988 35.7129C38.8535 35.4434 38.5098 35.0566 38.2676 34.5527C38.0254 34.0488 37.9043 33.459 37.9043 32.7832C37.9043 31.7363 38.166 30.9219 38.6895 30.3398C39.2129 29.7539 39.9395 29.4609 40.8691 29.4609C41.7676 29.4609 42.4805 29.7598 43.0078 30.3574C43.5391 30.9551 43.8047 31.7637 43.8047 32.7832ZM38.9121 32.7832C38.9121 33.6035 39.0762 34.2285 39.4043 34.6582C39.7324 35.0879 40.2148 35.3027 40.8516 35.3027C41.4883 35.3027 41.9707 35.0898 42.2988 34.6641C42.6309 34.2344 42.7969 33.6074 42.7969 32.7832C42.7969 31.9668 42.6309 31.3477 42.2988 30.9258C41.9707 30.5 41.4844 30.2871 40.8398 30.2871C40.2031 30.2871 39.7227 30.4961 39.3984 30.9141C39.0742 31.332 38.9121 31.9551 38.9121 32.7832ZM49.6582 34.248C49.6582 34.8457 49.4355 35.3066 48.9902 35.6309C48.5449 35.9551 47.9199 36.1172 47.1152 36.1172C46.2637 36.1172 45.5996 35.9824 45.123 35.7129V34.8105C45.4316 34.9668 45.7617 35.0898 46.1133 35.1797C46.4688 35.2695 46.8105 35.3145 47.1387 35.3145C47.6465 35.3145 48.0371 35.2344 48.3105 35.0742C48.584 34.9102 48.7207 34.6621 48.7207 34.3301C48.7207 34.0801 48.6113 33.8672 48.3926 33.6914C48.1777 33.5117 47.7559 33.3008 47.127 33.0586C46.5293 32.8359 46.1035 32.6426 45.8496 32.4785C45.5996 32.3105 45.4121 32.1211 45.2871 31.9102C45.166 31.6992 45.1055 31.4473 45.1055 31.1543C45.1055 30.6309 45.3184 30.2188 45.7441 29.918C46.1699 29.6133 46.7539 29.4609 47.4961 29.4609C48.1875 29.4609 48.8633 29.6016 49.5234 29.8828L49.1777 30.6738C48.5332 30.4082 47.9492 30.2754 47.4258 30.2754C46.9648 30.2754 46.6172 30.3477 46.3828 30.4922C46.1484 30.6367 46.0312 30.8359 46.0312 31.0898C46.0312 31.2617 46.0742 31.4082 46.1602 31.5293C46.25 31.6504 46.3926 31.7656 46.5879 31.875C46.7832 31.9844 47.1582 32.1426 47.7129 32.3496C48.4746 32.627 48.9883 32.9062 49.2539 33.1875C49.5234 33.4688 49.6582 33.8223 49.6582 34.248ZM53.3203 35.3145C53.4922 35.3145 53.6582 35.3027 53.8184 35.2793C53.9785 35.252 54.1055 35.2246 54.1992 35.1973V35.9414C54.0938 35.9922 53.9375 36.0332 53.7305 36.0645C53.5273 36.0996 53.3438 36.1172 53.1797 36.1172C51.9375 36.1172 51.3164 35.4629 51.3164 34.1543V30.334H50.3965V29.8652L51.3164 29.4609L51.7266 28.0898H52.2891V29.5781H54.1523V30.334H52.2891V34.1133C52.2891 34.5 52.3809 34.7969 52.5645 35.0039C52.748 35.2109 53 35.3145 53.3203 35.3145ZM56.4023 29.5781V33.7441C56.4023 34.2676 56.5215 34.6582 56.7598 34.916C56.998 35.1738 57.3711 35.3027 57.8789 35.3027C58.5508 35.3027 59.041 35.1191 59.3496 34.752C59.6621 34.3848 59.8184 33.7852 59.8184 32.9531V29.5781H60.791V36H59.9883L59.8477 35.1387H59.7949C59.5957 35.4551 59.3184 35.6973 58.9629 35.8652C58.6113 36.0332 58.209 36.1172 57.7559 36.1172C56.9746 36.1172 56.3887 35.9316 55.998 35.5605C55.6113 35.1895 55.418 34.5957 55.418 33.7793V29.5781H56.4023ZM65.7891 29.4609C66.0742 29.4609 66.3301 29.4844 66.5566 29.5312L66.4219 30.4336C66.1562 30.375 65.9219 30.3457 65.7188 30.3457C65.1992 30.3457 64.7539 30.5566 64.3828 30.9785C64.0156 31.4004 63.832 31.9258 63.832 32.5547V36H62.8594V29.5781H63.6621L63.7734 30.7676H63.8203C64.0586 30.3496 64.3457 30.0273 64.6816 29.8008C65.0176 29.5742 65.3867 29.4609 65.7891 29.4609ZM70.4707 36.1172C69.5215 36.1172 68.7715 35.8281 68.2207 35.25C67.6738 34.6719 67.4004 33.8691 67.4004 32.8418C67.4004 31.8066 67.6543 30.9844 68.1621 30.375C68.6738 29.7656 69.3594 29.4609 70.2188 29.4609C71.0234 29.4609 71.6602 29.7266 72.1289 30.2578C72.5977 30.7852 72.832 31.4824 72.832 32.3496V32.9648H68.4082C68.4277 33.7188 68.6172 34.291 68.9766 34.6816C69.3398 35.0723 69.8496 35.2676 70.5059 35.2676C71.1973 35.2676 71.8809 35.123 72.5566 34.834V35.7012C72.2129 35.8496 71.8867 35.9551 71.5781 36.0176C71.2734 36.084 70.9043 36.1172 70.4707 36.1172ZM70.207 30.2754C69.6914 30.2754 69.2793 30.4434 68.9707 30.7793C68.666 31.1152 68.4863 31.5801 68.4316 32.1738H71.7891C71.7891 31.5605 71.6523 31.0918 71.3789 30.7676C71.1055 30.4395 70.7148 30.2754 70.207 30.2754ZM84.2637 36H83.2676V31.9688H78.7559V36H77.7598V27.4336H78.7559V31.0781H83.2676V27.4336H84.2637V36ZM89.1855 36.1172C88.2363 36.1172 87.4863 35.8281 86.9355 35.25C86.3887 34.6719 86.1152 33.8691 86.1152 32.8418C86.1152 31.8066 86.3691 30.9844 86.877 30.375C87.3887 29.7656 88.0742 29.4609 88.9336 29.4609C89.7383 29.4609 90.375 29.7266 90.8438 30.2578C91.3125 30.7852 91.5469 31.4824 91.5469 32.3496V32.9648H87.123C87.1426 33.7188 87.332 34.291 87.6914 34.6816C88.0547 35.0723 88.5645 35.2676 89.2207 35.2676C89.9121 35.2676 90.5957 35.123 91.2715 34.834V35.7012C90.9277 35.8496 90.6016 35.9551 90.293 36.0176C89.9883 36.084 89.6191 36.1172 89.1855 36.1172ZM88.9219 30.2754C88.4062 30.2754 87.9941 30.4434 87.6855 30.7793C87.3809 31.1152 87.2012 31.5801 87.1465 32.1738H90.5039C90.5039 31.5605 90.3672 31.0918 90.0938 30.7676C89.8203 30.4395 89.4297 30.2754 88.9219 30.2754ZM94.1836 36H93.2109V26.8828H94.1836V36ZM99.2344 36.1172C98.8164 36.1172 98.4336 36.041 98.0859 35.8887C97.7422 35.7324 97.4531 35.4941 97.2188 35.1738H97.1484C97.1953 35.5488 97.2188 35.9043 97.2188 36.2402V38.8828H96.2461V29.5781H97.0371L97.1719 30.457H97.2188C97.4688 30.1055 97.7598 29.8516 98.0918 29.6953C98.4238 29.5391 98.8047 29.4609 99.2344 29.4609C100.086 29.4609 100.742 29.752 101.203 30.334C101.668 30.916 101.9 31.7324 101.9 32.7832C101.9 33.8379 101.664 34.6582 101.191 35.2441C100.723 35.8262 100.07 36.1172 99.2344 36.1172ZM99.0938 30.2871C98.4375 30.2871 97.9629 30.4688 97.6699 30.832C97.377 31.1953 97.2266 31.7734 97.2188 32.5664V32.7832C97.2188 33.6855 97.3691 34.332 97.6699 34.7227C97.9707 35.1094 98.4531 35.3027 99.1172 35.3027C99.6719 35.3027 100.105 35.0781 100.418 34.6289C100.734 34.1797 100.893 33.5605 100.893 32.7715C100.893 31.9707 100.734 31.3574 100.418 30.9316C100.105 30.502 99.6641 30.2871 99.0938 30.2871ZM106.318 36.1172C105.369 36.1172 104.619 35.8281 104.068 35.25C103.521 34.6719 103.248 33.8691 103.248 32.8418C103.248 31.8066 103.502 30.9844 104.01 30.375C104.521 29.7656 105.207 29.4609 106.066 29.4609C106.871 29.4609 107.508 29.7266 107.977 30.2578C108.445 30.7852 108.68 31.4824 108.68 32.3496V32.9648H104.256C104.275 33.7188 104.465 34.291 104.824 34.6816C105.188 35.0723 105.697 35.2676 106.354 35.2676C107.045 35.2676 107.729 35.123 108.404 34.834V35.7012C108.061 35.8496 107.734 35.9551 107.426 36.0176C107.121 36.084 106.752 36.1172 106.318 36.1172ZM106.055 30.2754C105.539 30.2754 105.127 30.4434 104.818 30.7793C104.514 31.1152 104.334 31.5801 104.279 32.1738H107.637C107.637 31.5605 107.5 31.0918 107.227 30.7676C106.953 30.4395 106.562 30.2754 106.055 30.2754ZM113.273 29.4609C113.559 29.4609 113.814 29.4844 114.041 29.5312L113.906 30.4336C113.641 30.375 113.406 30.3457 113.203 30.3457C112.684 30.3457 112.238 30.5566 111.867 30.9785C111.5 31.4004 111.316 31.9258 111.316 32.5547V36H110.344V29.5781H111.146L111.258 30.7676H111.305C111.543 30.3496 111.83 30.0273 112.166 29.8008C112.502 29.5742 112.871 29.4609 113.273 29.4609Z" fill="#123467"/>
</svg>
