<svg width="117" height="33" viewBox="0 0 117 33" fill="none" xmlns="http://www.w3.org/2000/svg">
<path d="M14.5632 8.47059C16.9236 8.47059 18.8371 6.57438 18.8371 4.23529C18.8371 1.89621 16.9236 0 14.5632 0C12.2027 0 10.2892 1.89621 10.2892 4.23529C10.2892 6.57438 12.2027 8.47059 14.5632 8.47059Z" fill="#00A499"/>
<path d="M24.8523 14.2745C27.2128 14.2745 29.1263 12.3783 29.1263 10.0392C29.1263 7.70016 27.2128 5.80396 24.8523 5.80396C22.4919 5.80396 20.5784 7.70016 20.5784 10.0392C20.5784 12.3783 22.4919 14.2745 24.8523 14.2745Z" fill="#00A499"/>
<path d="M4.27397 26.1962C6.63442 26.1962 8.54795 24.3 8.54795 21.9609C8.54795 19.6218 6.63442 17.7256 4.27397 17.7256C1.91352 17.7256 0 19.6218 0 21.9609C0 24.3 1.91352 26.1962 4.27397 26.1962Z" fill="#00A499"/>
<path d="M8.23291 8.94117C8.07461 7.99999 7.28314 7.05882 6.33336 6.43136C4.27553 5.33333 1.7428 5.96078 0.634733 7.99999C-0.473334 10.0392 0.159847 12.549 2.21769 13.647C2.53428 13.9608 2.85087 13.9608 3.32575 14.1176H4.43382C4.75041 14.1176 4.90871 14.1176 5.2253 14.1176L13.4567 11.9216C10.6073 12.7059 9.02438 11.9216 8.23291 8.94117Z" fill="#00A499"/>
<path d="M5.22388 14.1178C8.07319 13.3335 9.65615 14.2747 10.4476 17.0982C10.6059 17.8825 11.0808 18.51 11.714 18.9806H11.5557C13.6135 21.0198 13.6135 22.7453 11.5557 24.9413L17.5709 18.9806H17.4126C17.7292 18.6668 18.0458 18.51 18.2041 18.1962C19.3122 16.157 18.679 13.6472 16.6211 12.5492C15.6714 11.9217 14.405 11.9217 13.4552 12.0786L5.22388 14.1178Z" fill="#00A499"/>
<path d="M17.5708 24.9413C15.5129 22.902 15.5129 21.1765 17.5708 18.9805L11.5555 24.9413C10.7641 25.7256 10.2892 26.6667 10.2892 27.9216C10.2892 30.2746 12.1887 32.1569 14.5632 32.1569C16.9376 32.1569 18.8371 30.2746 18.8371 27.9216C18.6788 26.6667 18.204 25.5687 17.5708 24.9413Z" fill="#00A499"/>
<path d="M31.6094 21.9297C31.6094 22.7969 31.3125 23.4648 30.7188 23.9336C30.1289 24.3984 29.2832 24.6309 28.1816 24.6309H27.1738V28H26.1777V19.4336H28.3984C30.5391 19.4336 31.6094 20.2656 31.6094 21.9297ZM27.1738 23.7754H28.0703C28.9531 23.7754 29.5918 23.6328 29.9863 23.3477C30.3809 23.0625 30.5781 22.6055 30.5781 21.9766C30.5781 21.4102 30.3926 20.9883 30.0215 20.7109C29.6504 20.4336 29.0723 20.2949 28.2871 20.2949H27.1738V23.7754ZM38.8047 24.7832C38.8047 25.8301 38.541 26.6484 38.0137 27.2383C37.4863 27.8242 36.7578 28.1172 35.8281 28.1172C35.2539 28.1172 34.7441 27.9824 34.2988 27.7129C33.8535 27.4434 33.5098 27.0566 33.2676 26.5527C33.0254 26.0488 32.9043 25.459 32.9043 24.7832C32.9043 23.7363 33.166 22.9219 33.6895 22.3398C34.2129 21.7539 34.9395 21.4609 35.8691 21.4609C36.7676 21.4609 37.4805 21.7598 38.0078 22.3574C38.5391 22.9551 38.8047 23.7637 38.8047 24.7832ZM33.9121 24.7832C33.9121 25.6035 34.0762 26.2285 34.4043 26.6582C34.7324 27.0879 35.2148 27.3027 35.8516 27.3027C36.4883 27.3027 36.9707 27.0898 37.2988 26.6641C37.6309 26.2344 37.7969 25.6074 37.7969 24.7832C37.7969 23.9668 37.6309 23.3477 37.2988 22.9258C36.9707 22.5 36.4844 22.2871 35.8398 22.2871C35.2031 22.2871 34.7227 22.4961 34.3984 22.9141C34.0742 23.332 33.9121 23.9551 33.9121 24.7832ZM44.6582 26.248C44.6582 26.8457 44.4355 27.3066 43.9902 27.6309C43.5449 27.9551 42.9199 28.1172 42.1152 28.1172C41.2637 28.1172 40.5996 27.9824 40.123 27.7129V26.8105C40.4316 26.9668 40.7617 27.0898 41.1133 27.1797C41.4688 27.2695 41.8105 27.3145 42.1387 27.3145C42.6465 27.3145 43.0371 27.2344 43.3105 27.0742C43.584 26.9102 43.7207 26.6621 43.7207 26.3301C43.7207 26.0801 43.6113 25.8672 43.3926 25.6914C43.1777 25.5117 42.7559 25.3008 42.127 25.0586C41.5293 24.8359 41.1035 24.6426 40.8496 24.4785C40.5996 24.3105 40.4121 24.1211 40.2871 23.9102C40.166 23.6992 40.1055 23.4473 40.1055 23.1543C40.1055 22.6309 40.3184 22.2188 40.7441 21.918C41.1699 21.6133 41.7539 21.4609 42.4961 21.4609C43.1875 21.4609 43.8633 21.6016 44.5234 21.8828L44.1777 22.6738C43.5332 22.4082 42.9492 22.2754 42.4258 22.2754C41.9648 22.2754 41.6172 22.3477 41.3828 22.4922C41.1484 22.6367 41.0312 22.8359 41.0312 23.0898C41.0312 23.2617 41.0742 23.4082 41.1602 23.5293C41.25 23.6504 41.3926 23.7656 41.5879 23.875C41.7832 23.9844 42.1582 24.1426 42.7129 24.3496C43.4746 24.627 43.9883 24.9062 44.2539 25.1875C44.5234 25.4688 44.6582 25.8223 44.6582 26.248ZM48.3203 27.3145C48.4922 27.3145 48.6582 27.3027 48.8184 27.2793C48.9785 27.252 49.1055 27.2246 49.1992 27.1973V27.9414C49.0938 27.9922 48.9375 28.0332 48.7305 28.0645C48.5273 28.0996 48.3438 28.1172 48.1797 28.1172C46.9375 28.1172 46.3164 27.4629 46.3164 26.1543V22.334H45.3965V21.8652L46.3164 21.4609L46.7266 20.0898H47.2891V21.5781H49.1523V22.334H47.2891V26.1133C47.2891 26.5 47.3809 26.7969 47.5645 27.0039C47.748 27.2109 48 27.3145 48.3203 27.3145ZM51.4023 21.5781V25.7441C51.4023 26.2676 51.5215 26.6582 51.7598 26.916C51.998 27.1738 52.3711 27.3027 52.8789 27.3027C53.5508 27.3027 54.041 27.1191 54.3496 26.752C54.6621 26.3848 54.8184 25.7852 54.8184 24.9531V21.5781H55.791V28H54.9883L54.8477 27.1387H54.7949C54.5957 27.4551 54.3184 27.6973 53.9629 27.8652C53.6113 28.0332 53.209 28.1172 52.7559 28.1172C51.9746 28.1172 51.3887 27.9316 50.998 27.5605C50.6113 27.1895 50.418 26.5957 50.418 25.7793V21.5781H51.4023ZM60.7891 21.4609C61.0742 21.4609 61.3301 21.4844 61.5566 21.5312L61.4219 22.4336C61.1562 22.375 60.9219 22.3457 60.7188 22.3457C60.1992 22.3457 59.7539 22.5566 59.3828 22.9785C59.0156 23.4004 58.832 23.9258 58.832 24.5547V28H57.8594V21.5781H58.6621L58.7734 22.7676H58.8203C59.0586 22.3496 59.3457 22.0273 59.6816 21.8008C60.0176 21.5742 60.3867 21.4609 60.7891 21.4609ZM65.4707 28.1172C64.5215 28.1172 63.7715 27.8281 63.2207 27.25C62.6738 26.6719 62.4004 25.8691 62.4004 24.8418C62.4004 23.8066 62.6543 22.9844 63.1621 22.375C63.6738 21.7656 64.3594 21.4609 65.2188 21.4609C66.0234 21.4609 66.6602 21.7266 67.1289 22.2578C67.5977 22.7852 67.832 23.4824 67.832 24.3496V24.9648H63.4082C63.4277 25.7188 63.6172 26.291 63.9766 26.6816C64.3398 27.0723 64.8496 27.2676 65.5059 27.2676C66.1973 27.2676 66.8809 27.123 67.5566 26.834V27.7012C67.2129 27.8496 66.8867 27.9551 66.5781 28.0176C66.2734 28.084 65.9043 28.1172 65.4707 28.1172ZM65.207 22.2754C64.6914 22.2754 64.2793 22.4434 63.9707 22.7793C63.666 23.1152 63.4863 23.5801 63.4316 24.1738H66.7891C66.7891 23.5605 66.6523 23.0918 66.3789 22.7676C66.1055 22.4395 65.7148 22.2754 65.207 22.2754ZM79.2637 28H78.2676V23.9688H73.7559V28H72.7598V19.4336H73.7559V23.0781H78.2676V19.4336H79.2637V28ZM84.1855 28.1172C83.2363 28.1172 82.4863 27.8281 81.9355 27.25C81.3887 26.6719 81.1152 25.8691 81.1152 24.8418C81.1152 23.8066 81.3691 22.9844 81.877 22.375C82.3887 21.7656 83.0742 21.4609 83.9336 21.4609C84.7383 21.4609 85.375 21.7266 85.8438 22.2578C86.3125 22.7852 86.5469 23.4824 86.5469 24.3496V24.9648H82.123C82.1426 25.7188 82.332 26.291 82.6914 26.6816C83.0547 27.0723 83.5645 27.2676 84.2207 27.2676C84.9121 27.2676 85.5957 27.123 86.2715 26.834V27.7012C85.9277 27.8496 85.6016 27.9551 85.293 28.0176C84.9883 28.084 84.6191 28.1172 84.1855 28.1172ZM83.9219 22.2754C83.4062 22.2754 82.9941 22.4434 82.6855 22.7793C82.3809 23.1152 82.2012 23.5801 82.1465 24.1738H85.5039C85.5039 23.5605 85.3672 23.0918 85.0938 22.7676C84.8203 22.4395 84.4297 22.2754 83.9219 22.2754ZM89.1836 28H88.2109V18.8828H89.1836V28ZM94.2344 28.1172C93.8164 28.1172 93.4336 28.041 93.0859 27.8887C92.7422 27.7324 92.4531 27.4941 92.2188 27.1738H92.1484C92.1953 27.5488 92.2188 27.9043 92.2188 28.2402V30.8828H91.2461V21.5781H92.0371L92.1719 22.457H92.2188C92.4688 22.1055 92.7598 21.8516 93.0918 21.6953C93.4238 21.5391 93.8047 21.4609 94.2344 21.4609C95.0859 21.4609 95.7422 21.752 96.2031 22.334C96.668 22.916 96.9004 23.7324 96.9004 24.7832C96.9004 25.8379 96.6641 26.6582 96.1914 27.2441C95.7227 27.8262 95.0703 28.1172 94.2344 28.1172ZM94.0938 22.2871C93.4375 22.2871 92.9629 22.4688 92.6699 22.832C92.377 23.1953 92.2266 23.7734 92.2188 24.5664V24.7832C92.2188 25.6855 92.3691 26.332 92.6699 26.7227C92.9707 27.1094 93.4531 27.3027 94.1172 27.3027C94.6719 27.3027 95.1055 27.0781 95.418 26.6289C95.7344 26.1797 95.8926 25.5605 95.8926 24.7715C95.8926 23.9707 95.7344 23.3574 95.418 22.9316C95.1055 22.502 94.6641 22.2871 94.0938 22.2871ZM101.318 28.1172C100.369 28.1172 99.6191 27.8281 99.0684 27.25C98.5215 26.6719 98.248 25.8691 98.248 24.8418C98.248 23.8066 98.502 22.9844 99.0098 22.375C99.5215 21.7656 100.207 21.4609 101.066 21.4609C101.871 21.4609 102.508 21.7266 102.977 22.2578C103.445 22.7852 103.68 23.4824 103.68 24.3496V24.9648H99.2559C99.2754 25.7188 99.4648 26.291 99.8242 26.6816C100.188 27.0723 100.697 27.2676 101.354 27.2676C102.045 27.2676 102.729 27.123 103.404 26.834V27.7012C103.061 27.8496 102.734 27.9551 102.426 28.0176C102.121 28.084 101.752 28.1172 101.318 28.1172ZM101.055 22.2754C100.539 22.2754 100.127 22.4434 99.8184 22.7793C99.5137 23.1152 99.334 23.5801 99.2793 24.1738H102.637C102.637 23.5605 102.5 23.0918 102.227 22.7676C101.953 22.4395 101.562 22.2754 101.055 22.2754ZM108.273 21.4609C108.559 21.4609 108.814 21.4844 109.041 21.5312L108.906 22.4336C108.641 22.375 108.406 22.3457 108.203 22.3457C107.684 22.3457 107.238 22.5566 106.867 22.9785C106.5 23.4004 106.316 23.9258 106.316 24.5547V28H105.344V21.5781H106.146L106.258 22.7676H106.305C106.543 22.3496 106.83 22.0273 107.166 21.8008C107.502 21.5742 107.871 21.4609 108.273 21.4609Z" fill="#00A499"/>
</svg>
